<?xml version="1.0" encoding="UTF-8"?>
<svg xmlns="http://www.w3.org/2000/svg" xmlns:xlink="http://www.w3.org/1999/xlink" width="25px" height="25px" viewBox="0 0 25 25" version="1.1">
<g id="surface1">
<path style=" stroke:none;fill-rule:nonzero;fill:rgb(0%,0%,0%);fill-opacity:1;" d="M 14.183594 14.230469 L 14.183594 16.328125 C 17 15.582031 19.082031 13.011719 19.082031 9.964844 C 19.082031 6.335938 16.128906 3.382812 12.5 3.382812 C 8.871094 3.382812 5.917969 6.335938 5.917969 9.964844 C 5.917969 13.011719 8 15.582031 10.816406 16.328125 L 10.816406 14.230469 C 9.117188 13.558594 7.910156 11.898438 7.910156 9.964844 C 7.910156 7.433594 9.96875 5.375 12.5 5.375 C 15.03125 5.375 17.089844 7.433594 17.089844 9.964844 C 17.089844 11.898438 15.882812 13.558594 14.183594 14.230469 Z M 14.183594 14.230469 "/>
<path style=" stroke:none;fill-rule:nonzero;fill:rgb(0%,0%,0%);fill-opacity:1;" d="M 22.464844 9.964844 C 22.464844 4.46875 17.996094 0 12.5 0 C 7.003906 0 2.535156 4.46875 2.535156 9.964844 C 2.535156 14.886719 6.121094 18.980469 10.816406 19.785156 L 10.816406 17.753906 C 7.226562 16.980469 4.527344 13.78125 4.527344 9.964844 C 4.527344 5.570312 8.105469 1.992188 12.5 1.992188 C 16.894531 1.992188 20.472656 5.570312 20.472656 9.964844 C 20.472656 13.78125 17.773438 16.980469 14.183594 17.753906 L 14.183594 19.785156 C 18.878906 18.980469 22.464844 14.886719 22.464844 9.964844 Z M 22.464844 9.964844 "/>
<path style=" stroke:none;fill-rule:nonzero;fill:rgb(0%,0%,0%);fill-opacity:1;" d="M 11.480469 16.464844 L 11.480469 25 L 13.519531 25 L 13.519531 13.050781 C 13.632812 13.015625 13.742188 12.96875 13.851562 12.921875 C 13.964844 12.867188 14.074219 12.8125 14.183594 12.746094 C 15.121094 12.175781 15.75 11.140625 15.75 9.964844 C 15.75 8.171875 14.292969 6.710938 12.5 6.710938 C 10.707031 6.710938 9.246094 8.171875 9.246094 9.964844 C 9.246094 11.140625 9.878906 12.175781 10.816406 12.746094 C 10.921875 12.8125 11.035156 12.867188 11.148438 12.921875 C 11.257812 12.96875 11.367188 13.015625 11.480469 13.050781 Z M 11.285156 9.632812 C 11.320312 9.511719 11.367188 9.402344 11.433594 9.300781 C 11.65625 8.945312 12.050781 8.707031 12.5 8.707031 C 12.949219 8.707031 13.34375 8.945312 13.566406 9.300781 C 13.632812 9.402344 13.679688 9.511719 13.714844 9.632812 C 13.742188 9.738281 13.757812 9.847656 13.757812 9.964844 C 13.757812 10.238281 13.667969 10.492188 13.519531 10.699219 C 13.289062 11.015625 12.917969 11.222656 12.5 11.222656 C 12.082031 11.222656 11.710938 11.015625 11.480469 10.699219 C 11.332031 10.492188 11.242188 10.238281 11.242188 9.964844 C 11.242188 9.847656 11.257812 9.738281 11.285156 9.632812 Z M 11.285156 9.632812 "/>
</g>
</svg>
